<svg xmlns="http://www.w3.org/2000/svg" viewBox="0 0 95.578 95.578"><path d="M54.016 25.378a9.292 9.292 0 0 0 2.776 6.636c2.296-.188 4.306-.503 5.602-.789a4.92 4.92 0 0 1 1.059-.115c1.791 0 3.407 1 4.268 2.501a9.324 9.324 0 0 0 4.949-8.234 9.294 9.294 0 0 0-3.031-6.868l-1.959.851.646-1.857a9.267 9.267 0 0 0-4.982-1.453 9.327 9.327 0 0 0-9.328 9.328z"/><path d="M88.971 43.722c-1.92-3.895-3.35-6.305-4.413-7.829h-1.624s.577-1.35.426-1.538l-.003-.004c-.178-.182-4.469-.739-4.469-.739l1.936-.96c-1.923-.804-5.39-1.995-8.464-3.013a10.455 10.455 0 0 1-4.303 4.729c.069.195.143.39.188.596a4.928 4.928 0 0 1-3.729 5.868c-.55.122-5.538 1.192-11.737 1.192-1.046 0-2.06-.037-3.051-.098-.739-.535-2.371-3.907-2.371-3.907a3.62 3.62 0 1 0-6.396 3.396s3.916 8.512 8.189 8.878c.09.005.178.008.266.008 1.961 0 3.474-1.283 5.328-3.783v2.125c1.657.25 4.549.816 4.549.816l-4.549 3.22v3.782c0 .984.194 2.402.532 3.247-.023.181-.054 14.067-.054 14.067 1.376 1.248 2.621 2.529 2.51 2.695-.117.176-1.337.174-2.51.129v1.561l-8.896 8.111a4.281 4.281 0 0 0 5.769 6.327l10.291-9.386a4.28 4.28 0 0 0 1.396-3.163v-5.207l-3.16-1.605 3.159-1.775-.001-6.79c.169.008.339.021.51.021.421 0 .838-.032 1.253-.08l3.94 14.672c.141.52.376 1.007.696 1.439l3.896 5.254 2.615-.256-.578 1.271 2.774.81-2.771.927 2.415 3.256a4.271 4.271 0 0 0 3.44 1.729 4.28 4.28 0 0 0 3.434-6.83l-7.867-10.608-1.845-6.877-3.023-.461 2.204-2.588-1.787-6.652c.476-.973.75-2.059.75-3.239v-6.694l-3.388-2.082 3.388-.527v-1.089l-2.347-1.042 2.348-.605v-6.633c1.993.689 3.617 1.277 4.315 1.583.81.982 2.744 4.353 4.324 7.555a3.622 3.622 0 1 0 6.495-3.204z"/><circle cx="23.035" cy="17.5" r="9.91"/><path d="M35.013 59.742a6.722 6.722 0 0 0 1.701-3.251l3.229-15.071a4.644 4.644 0 0 1-.023-2.8 4.66 4.66 0 0 1 2.287-2.771 4.687 4.687 0 0 1 6.346 1.944l.707 1.34c.295.563.603 1.144.892 1.67 1.026.064 2.036.093 3.016.093 6.134 0 11.108-1.079 11.504-1.167a3.847 3.847 0 0 0-1.671-7.511c-.089.02-.202.041-.298.061l-.632 2.994-2.171-2.524c-5.396.72-14.248.996-19.341-2.412-.985-1.814-2.665-3.263-4.393-4.101 0 0-.955-.524-2.046-.733-1.043-.198-2.252-.206-2.252-.206l-.029-.002c-3.431.1-7.471 2.012-8.325 5.997l-4.682 21.44c-.375 1.75-.354 3.289.612 4.268-.038.166-.09.324-.111.497l-1.925 16.052L7.239 86.727a4.823 4.823 0 0 0 .873 6.769 4.801 4.801 0 0 0 2.944 1.006 4.82 4.82 0 0 0 3.826-1.878l10.98-14.229a4.82 4.82 0 0 0 .971-2.375l1.037-8.646 3.164 6.996-3.192 15.4a4.827 4.827 0 1 0 9.453 1.961l3.512-16.939c.207-1 .092-2.039-.329-2.969l-5.465-12.081zM31.118 1.61l2.03 3.472 3.817-1.4-2.006 4.542 3.788.828-2.856 2.528 4.064 2.607-4.279 1.228.199.698 5.822-1.671-4.605-2.955 3.206-2.839-4.316-.943 2.339-5.292-4.852 1.778L31.017 0 28.71 5.389l.668.286z"/></svg>