<svg xmlns="http://www.w3.org/2000/svg" viewBox="0 0 612 612"><path d="M597.813 317.4l-123.576 9.042v-107.62c0-10.507-11.686-16.795-20.454-11.008l-76.698 50.621-36.728-190.03c-2.449-12.671-19.76-14.647-25.002-2.853l-76.227 171.509-119.781-83.532c-9.877-6.887-23.059 1.974-20.411 13.719l37.211 165.022-100.581 21.665c-10.612 2.286-14.074 15.696-5.894 22.832l71.499 62.372-64.12 50.519h120.388l34.12-26.882-48.706-42.488 67.359-14.508-23.834-105.702 78.758 54.924 49.742-111.92 23.834 123.319 51.815-34.198v70.468l84.977-6.218-71.505 70.468 36.173 22.737h127.332l-68.007-42.747 108.536-106.964c8.739-8.61 2.016-23.442-10.22-22.547zM16.486 554.284h573.642c9.105 0 16.486-7.381 16.486-16.487v-6.595c0-9.105-7.381-16.486-16.486-16.486H16.486C7.381 514.717 0 522.098 0 531.203v6.595c0 9.105 7.381 16.486 16.486 16.486z"/></svg>