<svg xmlns="http://www.w3.org/2000/svg" viewBox="0 0 277.804 277.804"><path d="M121.736 146.033c-3.207 0-4.917 2.978-4.917 6.627 0 3.631 1.816 6.497 4.917 6.497 3.125 0 4.889-2.922 4.889-6.633 0-3.336-1.654-6.491-4.889-6.491zM168.299 152.524c0-3.336-1.656-6.491-4.891-6.491-3.206 0-4.915 2.978-4.915 6.627 0 3.631 1.812 6.497 4.915 6.497 3.133 0 4.891-2.922 4.891-6.633zM101.393 168.5c-.943 0-1.591.075-2.033.168v11.678c.411.069 1.043.069 1.646.069 3.866.033 6.16-2.123 6.16-6.258.023-3.575-2.056-5.657-5.773-5.657zM101.831 146.141c-1.022 0-1.734.089-2.208.187v12.699c.448.079 1.127.079 1.788.079 4.205.023 6.704-2.311 6.704-6.81.024-3.901-2.235-6.155-6.284-6.155zM165.411 168.435c-.942 0-1.55.075-1.834.141v5.152h1.765c2.002 0 3.233-1.068 3.233-2.679 0-1.778-1.232-2.614-3.164-2.614zM182.068 170.633c0-1.554-1.158-2.254-3.039-2.254-.877 0-1.381.052-1.698.121v4.462h1.521c2.077.01 3.216-.952 3.216-2.329z"/><path d="M191.481 55.405c0-1.923-.093-3.825-.275-5.694v-2.193s-.126-.061-.345-.152C187.15 20.617 165.29 0 138.902 0c-28.99 0-52.579 24.857-52.579 55.41 0 8.354 6.419 15.109 14.342 15.109 7.92 0 14.333-6.755 14.333-15.109 0-13.885 10.72-25.186 23.905-25.186 13.18 0 23.9 11.296 23.9 25.186-.304 21.032-49.401 29.258-49.401 29.258l.023.051c-14.064 2.772-24.735 15.934-24.735 31.83v128.827c0 17.913 13.529 32.428 30.224 32.428h42.345c15.588 0 28.264-12.695 29.897-28.955l.051.112v-.635c.089-.989.275-1.941.275-2.95V116.544c0-1.008-.187-1.965-.275-2.949v-55.28c.171-.947.274-1.911.274-2.91zm-19.363 88.346h13.385v2.702h-5.101v15.019h-3.23v-15.019h-5.054v-2.702zm-64.346 36.79c-1.622 1.476-4.208 2.227-7.374 2.227-1.717 0-3.022-.098-4.016-.22v-16.017a33.172 33.172 0 0 1 4.737-.337c3.047 0 5.122.631 6.623 1.877 1.591 1.278 2.562 3.238 2.562 5.997.005 2.921-.989 5.074-2.532 6.473zm.999-21.31c-1.764 1.605-4.578 2.427-8.025 2.427-1.869 0-3.288-.103-4.364-.242v-17.437a36.603 36.603 0 0 1 5.157-.364c3.311 0 5.572.682 7.206 2.054 1.736 1.391 2.786 3.52 2.786 6.516.001 3.182-1.077 5.525-2.76 7.046zm7.101 23.364h-2.973v-16.293h2.973v16.293zm7.106.261c-1.738 0-3.531-.48-4.419-1.041l.674-2.459c.945.551 2.413 1.04 3.937 1.04 1.888 0 2.95-.9 2.95-2.235 0-1.223-.821-1.951-2.877-2.688-2.705-.971-4.419-2.403-4.419-4.741 0-2.688 2.222-4.686 5.778-4.686 1.762 0 3.043.387 3.89.821l-.698 2.385a7.154 7.154 0 0 0-3.264-.774c-1.888 0-2.686.989-2.686 1.965 0 1.26.945 1.838 3.12 2.688 2.83 1.064 4.177 2.488 4.177 4.826.002 2.631-1.977 4.899-6.163 4.899zm-1.4-21.095c-5.022 0-8.177-3.846-8.177-9.021 0-5.475 3.447-9.311 8.44-9.311 5.152 0 8.205 3.916 8.205 8.989 0 5.945-3.608 9.343-8.468 9.343zm21.029 7.029h-4.69v13.81h-2.971v-13.81h-4.641v-2.488h12.302v2.488zm-1.467-21.235l-.11.028c.133 2.286.187 4.629.187 7.546v6.338h-2.999v-17.721h3.71l4.581 7.599c1.152 1.974 2.203 4.022 3.015 5.94h.056c-.242-2.366-.289-4.653-.289-7.364v-6.175h2.996v17.721h-3.369l-4.625-7.808c-1.132-1.941-2.288-4.107-3.153-6.104zm16.075 28.058c0 5.021-2.585 7.243-6.496 7.243-3.771 0-6.217-2.101-6.217-7.225v-9.33h2.978v9.498c0 3.197 1.33 4.667 3.332 4.667 2.156 0 3.431-1.47 3.431-4.667v-9.498h2.978v9.312h-.006zm-2.137-22.874c0-5.475 3.444-9.311 8.438-9.311 5.152 0 8.204 3.916 8.204 8.989 0 5.945-3.603 9.343-8.466 9.343-5.026.001-8.176-3.845-8.176-9.021zm14.01 29.856c-.243-.485-.653-1.815-1.083-3.846-.485-2.133-1.236-2.81-2.931-2.847h-1.493v6.688h-2.95v-16.05c1.135-.215 2.782-.354 4.499-.354 2.344 0 3.911.383 5.022 1.298.896.746 1.399 1.885 1.399 3.285 0 2.104-1.423 3.528-2.973 4.069v.075c1.186.438 1.891 1.568 2.273 3.132.531 2.039.971 3.915 1.278 4.55h-3.041zm15.01-1.325c-1.158.98-3.071 1.493-6.067 1.493-1.643 0-2.866-.121-3.65-.224V166.54c.943-.196 2.661-.354 4.355-.354 2.179 0 3.556.284 4.644 1.031 1.008.606 1.689 1.666 1.689 3.075 0 1.494-.943 2.856-2.707 3.506v.064c1.718.443 3.29 1.793 3.29 4.019-.005 1.456-.635 2.586-1.554 3.389z"/><path d="M178.805 175.128h-1.475v5.32c.388.074.896.074 1.573.074 1.908 0 3.626-.699 3.626-2.711.001-1.909-1.67-2.683-3.724-2.683z"/></svg>