<svg xmlns="http://www.w3.org/2000/svg" viewBox="0 0 496.012 496.012"><path d="M304.012 400.006h-11.856c-8 0-15.816-1.92-23.048-5.192 7.128-16.104 10.904-33.68 10.904-51.392 0-42.808-24.832-84.032-64.976-108.472l13.944-27.12a27.383 27.383 0 0 0 3.032-12.496c0-15.072-12.256-27.328-27.328-27.328h-.984c-9.336 0-17.936 4.688-22.984 12.544l-1.8 2.808c-.52.808-1.872.792-2.384 0l-1.944-3.024c-4.952-7.72-13.4-12.328-22.576-12.328s-17.624 4.608-22.576 12.328l-1.936 3.016c-.52.8-1.864.824-2.392 0l-1.8-2.8c-5.056-7.856-13.648-12.544-22.984-12.544h-.984c-15.072 0-27.328 12.256-27.328 27.328 0 4.328 1.048 8.656 3.024 12.496l13.944 27.12c-40.136 24.432-64.968 65.664-64.968 108.472 0 8.288.848 16.512 2.432 24.584h-1.208a23.969 23.969 0 0 0-22.768 16.408l-1.224 3.68c-2.888 8.68-.664 18.088 5.8 24.56L34.7 440.31c9.6 9.608 21.496 16.96 34.392 21.264l41.768 13.92a87.968 87.968 0 0 0 27.824 4.512h129.168c7.184 0 14.368-.88 21.344-2.624l14.816-3.704v22.328h144v-128h-144v32zm-216-204.672c0-6.248 5.08-11.328 11.328-11.328h.984a11.26 11.26 0 0 1 9.52 5.2l1.8 2.8c3.216 5.008 8.696 8 14.656 8a17.365 17.365 0 0 0 14.656-8l1.944-3.024c4-6.232 14.232-6.232 18.232 0l1.944 3.024c3.216 5.008 8.696 8 14.656 8 5.96 0 11.44-2.992 14.656-8l1.8-2.808a11.281 11.281 0 0 1 9.52-5.2h.984c6.24.008 11.32 5.088 11.32 11.336 0 1.792-.432 3.584-1.256 5.176l-16.2 31.496h-93.088l-16.2-31.504a11.279 11.279 0 0 1-1.256-5.168zm10.168 52.672h107.656c35.944 21.472 58.176 57.848 58.176 95.416 0 14.736-3.072 29.304-8.72 42.808l-57.864-46.288a23.897 23.897 0 0 0-9.168-4.544l-4.424-1.104c-.896-12.424-11.176-22.288-23.824-22.288h-16c-4.408 0-8-3.592-8-8 0-4.408 3.592-8 8-8h16c4.408 0 8 3.592 8 8h16c0-13.232-10.768-24-24-24v-16h-16v16c-13.232 0-24 10.768-24 24s10.768 24 24 24h16c2.768 0 5.096 1.504 6.528 3.648a24.006 24.006 0 0 0-18.208 12.352h-4.32c-4.408 0-8-3.592-8-8h-16c0 13.232 10.768 24 24 24h.032c-.312 8.224 3.576 16.224 10.608 20.912l19.848 13.24c.488.32.904.712 1.352 1.064l-17.848 4.464c-1.12.28-2.256.48-3.416.592l-62.592 6.264c-7.232.72-14.256-1.808-19.36-6.912l-24.592-24.592c-1.32-1.32-2.8-2.416-4.352-3.376-2.408-9.184-3.68-18.664-3.68-28.24 0-37.568 22.232-73.944 58.168-95.416zm205.832 209.176l-18.688 4.672a71.805 71.805 0 0 1-17.464 2.152H138.684a71.774 71.774 0 0 1-22.768-3.696l-41.768-13.92a72.416 72.416 0 0 1-28.144-17.392l-27.656-27.656a7.96 7.96 0 0 1-1.936-8.184l1.224-3.672a8.015 8.015 0 0 1 7.6-5.48h5.84a8.06 8.06 0 0 1 5.656 2.344l24.592 24.592c8.512 8.512 20.28 12.704 32.264 11.52l62.584-6.264a38.295 38.295 0 0 0 5.728-1l22.792-5.696c.672 3.392.648 6.944-.224 10.44l-2.528 10.12 15.52 3.88 2.528-10.128c4.088-16.36-2.592-33.632-16.624-42.984l-19.856-13.24a8.007 8.007 0 0 1-3.32-8.6l1.384-5.536c1.064-4.28 5.416-6.92 9.696-5.824l13.088 3.272c1.112.28 2.168.8 3.064 1.512l59.744 47.8c12.728 10.192 28.704 15.792 44.992 15.792h11.856v41.176zm16-73.176h16v16h16v-16h80v96h-80v-64h-16v64h-16v-96z"/><path d="M456.012.006h-128c-19.312 0-35.472 13.768-39.192 32H24.012c-13.232 0-24 10.768-24 24v152c0 13.232 10.768 24 24 24H44.7L34.356 242.35l11.312 11.312 29.656-29.656-29.656-29.656-11.312 11.312L44.7 216.006H24.012c-4.408 0-8-3.592-8-8v-152c0-4.408 3.592-8 8-8h264v232c0 22.056 17.944 40 40 40h128c22.056 0 40-17.944 40-40v-240c0-22.056-17.944-40-40-40zm24 280c0 13.232-10.768 24-24 24h-128c-13.232 0-24-10.768-24-24v-24h176v24zm0-40h-176v-176h176v176zm0-192h-176v-8c0-13.232 10.768-24 24-24h128c13.232 0 24 10.768 24 24v8z"/><path d="M352.012 272.006h80v16h-80zM96.012 96.006c0-17.648-14.352-32-32-32s-32 14.352-32 32 14.352 32 32 32 32-14.352 32-32zm-32 16c-8.824 0-16-7.176-16-16s7.176-16 16-16 16 7.176 16 16-7.176 16-16 16zM112.012 88.006h160v16h-160zM464.012 80.006h-144v144h144v-144zm-16 128h-112v-112h112v112z"/></svg>