<svg xmlns="http://www.w3.org/2000/svg" viewBox="0 0 79.536 79.536"><path d="M70.477 0a4.275 4.275 0 0 0-4.262 4.27v17.37c1.035.223 2.014.663 2.807 1.432 2.258 2.211 2.314 5.854.108 8.116L61.052 39.5l-1.107-1.077 8.099-8.283a4.263 4.263 0 0 0-.078-5.981 4.31 4.31 0 0 0-1.792-1.025 4.55 4.55 0 0 0-2.128-.062 4.143 4.143 0 0 0-2.04 1.178c-4.795 4.925-9.601 9.847-14.396 14.771-1.201 1.235-3.396 4.058-3.334 6.874.057 2.646-.031 5.375.016 8.031a4.794 4.794 0 0 0-2.253-1.035c-2.473-.414-4.699 1.057-5.554 3.257h-1.256c0-.596 0-1.206.011-1.808.062-2.785-.049-5.664.021-8.445.065-2.816-2.136-5.639-3.334-6.874-4.805-4.924-9.598-9.846-14.403-14.775a4.198 4.198 0 0 0-2.041-1.173 4.47 4.47 0 0 0-2.125.057 4.32 4.32 0 0 0-1.794 1.03c-1.654 1.626-1.69 4.301-.072 5.981l8.091 8.283-1.103 1.077-8.075-8.312c-2.211-2.268-2.154-5.905.106-8.116.79-.769 1.771-1.209 2.804-1.432V4.27a4.27 4.27 0 0 0-8.538 0v30.08c0 .981.388 1.877.976 2.607l14.527 19.19h-1.276a5.146 5.146 0 0 0-5.139 5.142c0 1.885 1.067 3.459 2.584 4.35-1.517.901-2.584 2.476-2.584 4.36a5.142 5.142 0 0 0 5.139 5.137h1.564v2.874h14.263c.738.72 1.613 1.278 2.661 1.455a5.127 5.127 0 0 0 5.924-4.195l.021-.135h.911c.01.952.005 1.885.104 2.874h14.52v-2.874h1.563c2.827 0 5.137-2.3 5.137-5.137 0-1.885-1.066-3.459-2.584-4.36 1.518-.891 2.584-2.465 2.584-4.35a5.147 5.147 0 0 0-5.137-5.142H59.25l14.53-19.19c.59-.73.979-1.626.979-2.607V4.27A4.28 4.28 0 0 0 70.477 0zM16.438 61.288a2.566 2.566 0 0 1 2.565-2.568h16.834l-.886 5.137H19.003a2.574 2.574 0 0 1-2.565-2.569zm0 8.71a2.566 2.566 0 0 1 2.565-2.568h15.33l-.886 5.137H19.003a2.572 2.572 0 0 1-2.565-2.569zm24.443 4.826c-.238 1.403-1.704 2.319-2.97 2.103a2.537 2.537 0 0 1-1.66-1.047 2.537 2.537 0 0 1-.435-1.916l2.832-16.445a2.588 2.588 0 0 1 2.566-2.133c.137 0 .279.01.404.03a2.564 2.564 0 0 1 2.092 2.968l-2.829 16.44zm22.217-4.826a2.57 2.57 0 0 1-2.563 2.568H43.882l.885-5.142h15.768a2.585 2.585 0 0 1 2.563 2.574zm0-8.71a2.562 2.562 0 0 1-2.563 2.563H45.378l.864-5.033c.011-.036 0-.067 0-.104h14.281a2.578 2.578 0 0 1 2.575 2.574z" fill="#010002"/></svg>