<svg xmlns="http://www.w3.org/2000/svg" viewBox="0 0 111.666 111.665"><path d="M60.256 39.506l-16.992-6.973-11.27-7.418a4.487 4.487 0 0 0-2.342-.736c-.29-.095-.587-.172-.888-.241 4.902-.426 8.77-6.489 8.77-11.555 0-.729-.087-1.455-.256-2.168h2.694a.783.783 0 0 0 .785-.784l-6.825-1.975H22.554l-4.557 1.312-.293-.465a1.22 1.22 0 0 0-1.695-.393l-.992.612a.546.546 0 0 0-.103.075c-.725.632-1.491 2.39-.618 5.239a2.928 2.928 0 0 0-2.891 2.9l-.003.467c-.003.402.046.785.011 1.19l-.025.599-.065.605c-.015.2-.051.403-.085.604-.037.203-.058.403-.105.606a19.899 19.899 0 0 1-1.11 3.588c-.166.386-.336.769-.521 1.138-.092.184-.185.366-.28.539a3.768 3.768 0 0 1-.252.421 3.22 3.22 0 0 0 1.745 5.342l1.187.234 4.999.988c-.005.146-.02.292-.019.441l.141 16.529a9.688 9.688 0 0 0 .974 4.158l-1.963 38.086c-.079 1.633 1.099 3.101 2.75 3.331a3.198 3.198 0 0 0 3.611-2.724l4.655-33.191.06-.002 5.194 32.541a3.212 3.212 0 0 0 3.376 2.686 3.196 3.196 0 0 0 2.973-3.407L36.12 54.6a5.035 5.035 0 0 0-.049-.437 4.802 4.802 0 0 0-.163-.674 9.715 9.715 0 0 0 .596-3.396l-.112-12.498 3.12 1.648.333.178c.104.055.216.1.333.135l18.1 5.504a2.966 2.966 0 0 0 3.591-1.705 2.952 2.952 0 0 0-1.613-3.849zM28.222 23.083c-1.35 0-2.638-.542-3.78-1.422l.027-.014a1.237 1.237 0 0 0 .453-1.677l-1.819-2.89c-.154-.248-.413-.411-.697-.495.407.161.848.256 1.313.256a3.58 3.58 0 0 0 3.58-3.579h1.854a3.578 3.578 0 1 0 7.156 0h.097c-.337 4.583-3.969 9.821-8.184 9.821zm-9.286-9.944c.038.714.146 1.44.323 2.167-.443-.726-.818-1.455-.915-1.856l.592-.311zm1.103.124h.101a3.58 3.58 0 0 0 2.17 3.29 1.232 1.232 0 0 0-.91.137.707.707 0 0 0-.088.064l-.326.275c-.526-1.225-.857-2.519-.947-3.766zm16.113-2.835c.096.36.167.725.215 1.091H20.08c.048-.37.123-.738.222-1.104h.548c5.137.814 10.19.817 15.302.013zm-16.983-.012c-.024.103-.044.206-.065.31l-.195-.31h.26zm2.561 14.801l-4.407-.297a24.457 24.457 0 0 0 .35-3.221c.018-.286.01-.581.014-.87.003-.289.005-.578-.016-.873l-.006-.112c2.079 2.327 3.834 2.639 4.604 2.639.407 0 .759-.073 1.053-.222l.071-.038c.906.771 1.909 1.363 2.985 1.683a9.69 9.69 0 0 0-4.648 1.311z"/><path d="M67.863 38.784l.822.193a.163.163 0 0 0 .196-.121l.459-1.959a.162.162 0 0 0-.122-.195l-.424-.1.282-.66-.331-.077.021-.093a.162.162 0 0 0-.122-.196l-.753-.177a.163.163 0 0 0-.197.122l-.021.092-9.248-2.169a2.364 2.364 0 0 0-.142-.027l-.037-.195a.168.168 0 0 0-.191-.131l-.161.03a.165.165 0 0 0-.13.19l.019.09c-.22.021-.433.078-.629.168l-.859-.201a.161.161 0 0 0-.196.121l-.588 2.51a.16.16 0 0 0 .122.195l.014.005c-.053.241-.041.44.111.589l-.208.416 5.667 2.258a2.44 2.44 0 0 0 1.055-1.039l5.227 1.225.364-.864zm-8.48-.524l.235-.461.285.068a2.7 2.7 0 0 0 .166.677 4.122 4.122 0 0 0-.686-.284zm1.547.896a3.649 3.649 0 0 0-.37-.312.118.118 0 0 0-.052-.082c-.199-.132-.3-.496-.348-.834l1.696.396a1.977 1.977 0 0 1-.926.832zM99.041 75.962v-.432h-.227l-1.463-2.806a18.092 18.092 0 0 0-1.019 2.599l.474.907c-.112 4.021-.065 22.933-.036 27.492.747-.322 1.508-.808 2.27-1.494V80.514l.098.188a1.052 1.052 0 0 0 1.866-.975l-1.963-3.765zM96.781 104.65c.049 2.396-.562 4.742-1.16 7.015h3.42v-8.515a8.513 8.513 0 0 1-2.264 1.32c.002.077.002.139.004.18zM103.429 73.178l-.85-2.679c-.914-.675-1.772-.903-2.559-.661-1.065.328-1.914 1.428-2.558 2.662l1.366 2.6a2.503 2.503 0 0 0 4.601-1.922zM70.431 104.732l.132 3.347c.065 1.539 1.301 2.81 2.866 2.873a2.993 2.993 0 0 0 3.116-2.865l.194-4.632c-1.531 1.102-3.054 1.505-4.448 1.505a7.928 7.928 0 0 1-1.86-.228z"/><path d="M95.858 104.047l.675-17.057a3.162 3.162 0 0 0-.271-1.404l-.164-.367-4.116-9.221c.026-.155.053-.311.071-.468h.825c.613 0 1.11-.472 1.11-1.054v-3.65l1.89 3.623c.27-.781.626-1.66 1.079-2.482l-2.158-4.134.435.428 1.843 3.505c.694-1.203 1.597-2.244 2.738-2.597.781-.239 1.597-.144 2.434.29l-1.407-4.432a2.033 2.033 0 0 0-.406-.717l-.23-.264-6.217-7.051V49.2c0-.58-.496-1.051-1.109-1.051h-8.326c3.339-.51 6.202-2.651 7.679-5.629 1.862-.471 2.333-5.005 2.333-5.005 0-6.384-5.173-11.558-11.557-11.558-6.382 0-11.557 5.174-11.557 11.558 0 0 .468 4.499 2.313 4.997.285.58.625 1.138 1.022 1.664a10.227 10.227 0 0 0 6.661 3.973h-8.312c-.613 0-1.11.471-1.11 1.051v7.873l-5.395 6.26-.248.287a2.051 2.051 0 0 0-.424.812l-1.229 4.676c.503-.106.997-.09 1.479.06 1.281.396 2.261 1.658 2.983 3.042l2.487-4.749.347-.347v.183l-2.667 5.238c.451.924.786 1.87 1.021 2.636l1.646-3.232v2.539c0 .582.497 1.054 1.11 1.054h.824c.036.292.083.579.146.86l-3.94 8.828-.17.381a3.139 3.139 0 0 0-.265 1.391l.673 17.045c1.822.479 4.09.379 6.374-1.489l.505-12.044h11.7l.512 12.251c1.322.876 3.699 2.02 6.363 1.292zM75.346 43.756a9.614 9.614 0 0 1-1.135-1.964v-4.325s9.635 1.717 12.591-4.811c0 4.146 2.511 3.525 5.002 4.216v4.929c-1.495 3.418-4.917 5.773-8.784 5.773-.446 0-.898-.031-1.345-.094a9.53 9.53 0 0 1-6.329-3.724zm11.049 6.606c-2.188.107-2.75 11.313-2.75 11.313 0-7.375-2.5-11.313-2.5-11.313h5.25zm-11.547 3.437l-.601.699v-4.244h3.726a9.15 9.15 0 0 0-3.125 3.545zm2.511 34.832l.021-.507 2.978-4.974a9.071 9.071 0 0 0 5.506-.068l3.019 5.042.021.507H77.359zm14.408-34.153l-.604-.687a9.148 9.148 0 0 0-3.121-3.537h3.726v4.224z"/><path d="M95.832 104.762a7.268 7.268 0 0 1-1.646.197c-1.878 0-3.521-.713-4.657-1.385l.188 4.512a3.005 3.005 0 0 0 2.873 2.866 2.996 2.996 0 0 0 3.11-2.874l.132-3.316zM69.39 104.415a11.113 11.113 0 0 1-2.268-1.158v8.408h3.426c-.599-2.271-1.211-4.617-1.162-7.015.002-.05.003-.134.004-.235zM67.124 102.416c.506.379 1.293.893 2.272 1.285.034-4.777.084-24.831-.067-26.176h-.146l.73-1.435a20.383 20.383 0 0 0-.958-2.758l-3.616 7.104a1.054 1.054 0 0 0 .937 1.529c.332 0 .647-.166.849-.445v20.896zM68.203 74.1l.59-1.127c-.667-1.418-1.591-2.766-2.791-3.135-.469-.145-.963-.117-1.479.064l-.654 2.494c-.302 1.145-.105 2.377 1.004 2.899a2.5 2.5 0 0 0 3.33-1.195zM33.392 2.923S33.142.001 30.82.001c-.604 0-1.146.366-1.525.948-.002.002-1.127.989-2.115 0-.021-.022-.045-.042-.068-.063C26.734.34 26.209 0 25.627 0c-2.324 0-2.572 2.922-2.572 2.922l-.301 3.771h10.938l-.3-3.77z"/></svg>