<svg xmlns="http://www.w3.org/2000/svg" viewBox="0 0 60.074 60.074"><g fill="#010002"><path d="M51.882 50.275a1.975 1.975 0 0 0 .594-2.308c-2.408-5.717-5.496-11.056-7.366-14.098.688-5.691-1.188-9.336-4.854-13.931-1.146-1.438-3.56-1.211-4.76-.025a3.32 3.32 0 0 0-.633.851h-7.928l-.032-.114h.66l-.924-1.708h-5.182v1.708h4.127l.146.507a1.97 1.97 0 0 0-.806 1.585c0 1.094.886 1.979 1.979 1.979h8.604c.44.555.849 1.145 1.217 1.759-2.045 1.308-4.074 2.643-6.137 3.921a1.934 1.934 0 0 0-.755.834 2.352 2.352 0 0 0-1.639 2.229c0 1.101.755 2.022 1.774 2.281v1.25a2.36 2.36 0 0 0-1.774 2.281c0 1.3 1.057 2.355 2.356 2.355v-.559a1.797 1.797 0 1 1 1.796-1.798h.559a2.362 2.362 0 0 0-1.794-2.288V35.75a2.347 2.347 0 0 0 1.78-2.127c1.815-1.133 3.606-2.302 5.406-3.458.353 1.361.469 2.769.269 4.174-2.703 4.349-3.856 9.434-3.343 14.843.041.417.213.786.465 1.087H23.388a2.16 2.16 0 0 0 1.475-3.409l-4.762-6.619c.251-1.337.895-3.521 2.138-4.978a4.023 4.023 0 0 0 1.796-1.56c.262-.344.416-.755.444-1.181.123-.717.011-1.506-.445-2.311-1.812-3.2-3.991-6.139-6.283-9.007-1.219-1.527-3.808-1.234-5.06.03-.029.03-.053.061-.081.091H3.511V7.53H0v45.013H60.074v-2.269h-8.192zM30.548 36.923h-.021v-1.098h.021v1.098zm0-1.659a1.798 1.798 0 0 1-1.797-1.797c0-.666.371-1.242.912-1.553-.07 1.307 1.176 2.653 2.598 2.063a1.792 1.792 0 0 1-1.713 1.287zM3.511 50.274V30.036h2.34v-2.865h-2.34v-2.327h8.399c.177.513.454 1.007.813 1.457 1.467 1.833 3.353 4.375 5.157 7.563.009.017.018.029.026.042-1.844 3.023-2.206 6.48-2.226 6.688a2.169 2.169 0 0 0 .398 1.474l5.272 7.328c.384.532.968.825 1.576.878H3.511zm35.193.001c.331-.394.512-.911.458-1.463-.44-4.636.509-8.821 2.818-12.47 1.821 2.988 4.641 7.92 6.847 13.162.131.312.337.57.585.771H38.704z"/><circle cx="10.748" cy="17.038" r="3.282"/><path d="M30.771 14.242a3.76 3.76 0 1 0 7.379 0h-7.379zM38.219 13.755v-2.731l-9.216-1.173 1.46 3.544-1.46.36v.487l1.607-.487z"/></g></svg>